<svg width="18" height="18" viewBox="0 0 18 18" fill="none" xmlns="http://www.w3.org/2000/svg">
<path d="M0 2.35403C0 1.72971 0.237053 1.13095 0.65901 0.689481C1.08097 0.248014 1.65326 0 2.25 0L15.75 0C16.3467 0 16.919 0.248014 17.341 0.689481C17.7629 1.13095 18 1.72971 18 2.35403V11.7702C18 12.3945 17.7629 12.9933 17.341 13.4347C16.919 13.8762 16.3467 14.1242 15.75 14.1242H4.96575C4.66741 14.1243 4.3813 14.2483 4.17037 14.4691L0.96075 17.8271C0.882147 17.9095 0.781932 17.9657 0.672791 17.9886C0.563649 18.0114 0.450486 17.9999 0.347624 17.9554C0.244763 17.9109 0.156827 17.8355 0.0949469 17.7387C0.0330667 17.6419 2.36417e-05 17.5281 0 17.4116L0 2.35403ZM5.625 7.0621C5.625 6.74994 5.50647 6.45056 5.2955 6.22983C5.08452 6.00909 4.79837 5.88509 4.5 5.88509C4.20163 5.88509 3.91548 6.00909 3.7045 6.22983C3.49353 6.45056 3.375 6.74994 3.375 7.0621C3.375 7.37427 3.49353 7.67365 3.7045 7.89438C3.91548 8.11511 4.20163 8.23912 4.5 8.23912C4.79837 8.23912 5.08452 8.11511 5.2955 7.89438C5.50647 7.67365 5.625 7.37427 5.625 7.0621ZM10.125 7.0621C10.125 6.74994 10.0065 6.45056 9.7955 6.22983C9.58452 6.00909 9.29837 5.88509 9 5.88509C8.70163 5.88509 8.41548 6.00909 8.2045 6.22983C7.99353 6.45056 7.875 6.74994 7.875 7.0621C7.875 7.37427 7.99353 7.67365 8.2045 7.89438C8.41548 8.11511 8.70163 8.23912 9 8.23912C9.29837 8.23912 9.58452 8.11511 9.7955 7.89438C10.0065 7.67365 10.125 7.37427 10.125 7.0621ZM13.5 8.23912C13.7984 8.23912 14.0845 8.11511 14.2955 7.89438C14.5065 7.67365 14.625 7.37427 14.625 7.0621C14.625 6.74994 14.5065 6.45056 14.2955 6.22983C14.0845 6.00909 13.7984 5.88509 13.5 5.88509C13.2016 5.88509 12.9155 6.00909 12.7045 6.22983C12.4935 6.45056 12.375 6.74994 12.375 7.0621C12.375 7.37427 12.4935 7.67365 12.7045 7.89438C12.9155 8.11511 13.2016 8.23912 13.5 8.23912Z" fill="#B2B2B2"/>
</svg>
