<svg width="17" height="18" viewBox="0 0 17 18" fill="none" xmlns="http://www.w3.org/2000/svg">
<path fill-rule="evenodd" clip-rule="evenodd" d="M12.4579 4.40978C14.7465 6.80627 14.659 10.6042 12.2625 12.8928C9.86602 15.1814 6.06804 15.0939 3.77947 12.6974C1.49091 10.3009 1.57839 6.50295 3.97488 4.21438C6.37136 1.92582 10.1693 2.0133 12.4579 4.40978ZM14.3242 13.6038C16.8384 10.5225 16.7218 5.9789 13.9043 3.02851C10.8529 -0.166799 5.78892 -0.283445 2.59361 2.76797C-0.601705 5.8194 -0.718352 10.8834 2.33307 14.0787C5.1506 17.0291 9.68398 17.3547 12.8778 14.9851L14.9925 17.1995C15.3739 17.5989 16.0069 17.6135 16.4063 17.232C16.8057 16.8506 16.8203 16.2176 16.4389 15.8182L14.3242 13.6038Z" fill="#B2B2B2"/>
</svg>
